<?xml version='1.0' encoding='utf-8'?>
<!DOCTYPE svg PUBLIC '-//W3C//DTD SVG 1.1//EN' 'http://www.w3.org/Graphics/SVG/1.1/DTD/svg11.dtd'>
<!-- Uploaded to: SVG Repo, www.svgrepo.com, Generator: SVG Repo Mixer Tools -->
<svg fill="#000000" height="800px" width="800px" version="1.1" xmlns="http://www.w3.org/2000/svg" viewBox="0 0 512 512" xmlns:xlink="http://www.w3.org/1999/xlink" enable-background="new 0 0 512 512">
  <g>
    <g>
      <path d="m480.6,207.7h-112.3v-114c0-5.3-2.1-10.4-5.7-14.2l-60.2-62.3c-3.8-4-9.2-6.2-14.7-6.2h-128.7c-11.3,0-20.4,9.1-20.4,20.4v176.3h-107.2c-11.3,0-20.4,9.1-20.4,20.4v193c0,11.3 9.1,20.4 20.4,20.4h45.9v39c0,11.3 9.1,20.4 20.4,20.4h325c11.3,0 20.4-9.1 20.4-20.4v-39h37.4c11.3,0 20.4-9.1 20.4-20.4v-193c0.1-11.2-9-20.4-20.3-20.4zm-301.2-155.9h99.6l48.4,50.1v105.8h-148v-155.9zm222.9,408.4h-284.1v-70.6h284.1v70.6zm57.9-59.4h-17v-31.6c0-11.3-9.1-20.4-20.4-20.4h-325c-11.3,0-20.4,9.1-20.4,20.4v31.6h-25.6v-152.2h408.3v152.2z"/>
      <circle cx="399.8" cy="293.6" r="21.4"/>
    </g>
  </g>
</svg>